<svg width="120" viewBox="0 0 120 30" fill="none" xmlns="http://www.w3.org/2000/svg">
<path d="M34.5906 22.7048L29.9965 16.9378V22.7048H26.5753V4.62168H29.9965V14.9095L34.5417 9.1669H38.9892L33.0266 15.9603L39.038 22.7048H34.5906Z" fill="white"/>
<path d="M46.8574 22.9248C45.5541 22.9248 44.3811 22.6397 43.3385 22.0695C42.2959 21.483 41.4732 20.6603 40.8704 19.6014C40.2839 18.5424 39.9907 17.3206 39.9907 15.9359C39.9907 14.5511 40.2921 13.3293 40.8948 12.2704C41.5139 11.2114 42.3529 10.3969 43.4118 9.82669C44.4708 9.24021 45.6519 8.94697 46.9551 8.94697C48.2584 8.94697 49.4395 9.24021 50.4985 9.82669C51.5574 10.3969 52.3882 11.2114 52.991 12.2704C53.6101 13.3293 53.9196 14.5511 53.9196 15.9359C53.9196 17.3206 53.6019 18.5424 52.9666 19.6014C52.3475 20.6603 51.5004 21.483 50.4252 22.0695C49.3662 22.6397 48.177 22.9248 46.8574 22.9248ZM46.8574 19.9435C47.4765 19.9435 48.0548 19.7969 48.5924 19.5036C49.1463 19.1941 49.5862 18.7379 49.912 18.1352C50.2378 17.5324 50.4007 16.7993 50.4007 15.9359C50.4007 14.6489 50.0586 13.6632 49.3744 12.979C48.7064 12.2785 47.8837 11.9282 46.9063 11.9282C45.9288 11.9282 45.1061 12.2785 44.4382 12.979C43.7865 13.6632 43.4607 14.6489 43.4607 15.9359C43.4607 17.2229 43.7784 18.2166 44.4137 18.9171C45.0654 19.6014 45.8799 19.9435 46.8574 19.9435Z" fill="white"/>
<path d="M73.2416 8.97141C74.9033 8.97141 76.2391 9.48458 77.2492 10.5109C78.2755 11.521 78.7887 12.9383 78.7887 14.7629V22.7048H75.3676V15.2272C75.3676 14.1683 75.0988 13.3619 74.5611 12.808C74.0235 12.2378 73.2904 11.9527 72.3618 11.9527C71.4332 11.9527 70.692 12.2378 70.1381 12.808C69.6005 13.3619 69.3317 14.1683 69.3317 15.2272V22.7048H65.9106V15.2272C65.9106 14.1683 65.6418 13.3619 65.1042 12.808C64.5665 12.2378 63.8334 11.9527 62.9049 11.9527C61.96 11.9527 61.2106 12.2378 60.6567 12.808C60.1191 13.3619 59.8503 14.1683 59.8503 15.2272V22.7048H56.4291V9.1669H59.8503V10.8042C60.2901 10.234 60.8522 9.78596 61.5364 9.46014C62.2369 9.13432 63.0026 8.97141 63.8334 8.97141C64.8924 8.97141 65.8373 9.19948 66.6681 9.65563C67.4989 10.0955 68.1424 10.7308 68.5986 11.5617C69.0385 10.7797 69.6738 10.1525 70.5047 9.68007C71.3518 9.20763 72.2641 8.97141 73.2416 8.97141Z" fill="white"/>
<path d="M94.9866 9.1669L86.6048 29.1072H82.9637L85.8961 22.3627L80.4712 9.1669H84.3077L87.8022 18.6239L91.3455 9.1669H94.9866Z" fill="white"/>
<path d="M109.611 9.1669V22.7048H106.166V20.9943C105.726 21.5807 105.147 22.045 104.431 22.3871C103.73 22.713 102.964 22.8759 102.134 22.8759C101.075 22.8759 100.138 22.6559 99.3233 22.2161C98.5088 21.7599 97.8653 21.1001 97.3928 20.2367C96.9367 19.357 96.7086 18.3144 96.7086 17.1088V9.1669H100.13V16.6201C100.13 17.6953 100.399 18.5261 100.936 19.1126C101.474 19.6828 102.207 19.9679 103.135 19.9679C104.08 19.9679 104.822 19.6828 105.359 19.1126C105.897 18.5261 106.166 17.6953 106.166 16.6201V9.1669H109.611Z" fill="white"/>
<path d="M116.97 11.9771V18.5261C116.97 18.9823 117.076 19.3163 117.288 19.5281C117.516 19.7235 117.89 19.8213 118.412 19.8213H120V22.7048H117.85C114.966 22.7048 113.524 21.3038 113.524 18.5017V11.9771H111.911V9.1669H113.524V5.81907H116.97V9.1669H120V11.9771H116.97Z" fill="white"/>
<path d="M0 11.0974C0 4.89998 4.72895 0.892822 9.95568 0.892822C14.9335 0.892822 19.4634 4.52665 19.874 10.2263H22.7612C23.3212 10.2263 23.595 10.8983 23.1967 11.2841L19.1025 15.3783C18.8536 15.6272 18.4678 15.6272 18.2189 15.3783L14.1246 11.2841C14.0394 11.1971 13.9815 11.087 13.9582 10.9675C13.9349 10.8479 13.9472 10.7242 13.9936 10.6115C14.0399 10.4989 14.1183 10.4024 14.2191 10.3339C14.3198 10.2654 14.4384 10.228 14.5602 10.2263H17.3727C16.9869 6.16933 13.8508 3.38174 9.95568 3.38174C5.78674 3.38174 2.48892 6.58001 2.48892 11.0974C2.48892 14.0094 4.91562 17.8673 9.95568 22.4718C10.7521 21.7375 11.4864 21.0282 12.1584 20.3437C11.9394 19.9116 11.8243 19.4344 11.8224 18.9499C11.8224 18.1248 12.1502 17.3335 12.7336 16.75C13.3171 16.1666 14.1084 15.8388 14.9335 15.8388C15.7587 15.8388 16.55 16.1666 17.1334 16.75C17.7169 17.3335 18.0447 18.1248 18.0447 18.9499C18.0442 19.4312 17.9318 19.9057 17.7163 20.336C17.5008 20.7663 17.1881 21.1405 16.803 21.429C16.4178 21.7176 15.9708 21.9125 15.4973 21.9985C15.0238 22.0844 14.5368 22.059 14.0748 21.9242C13.1042 22.9447 11.9966 23.99 10.777 25.0602C10.3041 25.4709 9.59479 25.4709 9.12189 25.0602C3.04893 19.7091 0 15.0548 0 11.0974Z" fill="#3B82F6"/>
<path d="M18.2091 19.1462C18.2091 20.9457 16.7503 22.4044 14.9509 22.4044C13.1514 22.4044 11.6926 20.9457 11.6926 19.1462C11.6926 17.3467 13.1514 15.888 14.9509 15.888C16.7503 15.888 18.2091 17.3467 18.2091 19.1462Z" fill="#4ADE80"/>
</svg>
